<svg width="40" height="40" viewBox="0 0 40 40" fill="none" xmlns="http://www.w3.org/2000/svg">
<path d="M23 30.75H17C11.57 30.75 9.25 28.43 9.25 23V17C9.25 11.57 11.57 9.25 17 9.25H23C28.43 9.25 30.75 11.57 30.75 17V23C30.75 28.43 28.43 30.75 23 30.75ZM17 10.75C12.39 10.75 10.75 12.39 10.75 17V23C10.75 27.61 12.39 29.25 17 29.25H23C27.61 29.25 29.25 27.61 29.25 23V17C29.25 12.39 27.61 10.75 23 10.75H17Z" fill="white"/>
<path d="M21.26 24.28C21.07 24.28 20.88 24.21 20.73 24.06L17.2 20.53C16.91 20.24 16.91 19.76 17.2 19.47L20.73 15.94C21.02 15.65 21.5 15.65 21.79 15.94C22.08 16.23 22.08 16.71 21.79 17L18.79 20L21.79 23C22.08 23.29 22.08 23.77 21.79 24.06C21.65 24.21 21.46 24.28 21.26 24.28Z" fill="white"/>
</svg>
